<svg xmlns="http://www.w3.org/2000/svg" viewBox="0 0 64 64" fill="none" width="100%" height="100%">
  <defs>
    <linearGradient id="m2ShieldBg" x1="0%" y1="0%" x2="100%" y2="100%">
      <stop offset="0%" stop-color="#24324a"/>
      <stop offset="50%" stop-color="#151e2e"/>
      <stop offset="100%" stop-color="#080c14"/>
    </linearGradient>
    <linearGradient id="m2GoldBorder" x1="0%" y1="0%" x2="100%" y2="100%">
      <stop offset="0%" stop-color="#fef08a"/>
      <stop offset="25%" stop-color="#f59e0b"/>
      <stop offset="60%" stop-color="#d97706"/>
      <stop offset="100%" stop-color="#92400e"/>
    </linearGradient>
    <linearGradient id="m2CyanRim" x1="0%" y1="0%" x2="100%" y2="100%">
      <stop offset="0%" stop-color="#38bdf8"/>
      <stop offset="50%" stop-color="#0284c7"/>
      <stop offset="100%" stop-color="#0369a1"/>
    </linearGradient>
    <linearGradient id="m2Num2Gold" x1="0%" y1="0%" x2="100%" y2="100%">
      <stop offset="0%" stop-color="#fef08a"/>
      <stop offset="40%" stop-color="#fbbf24"/>
      <stop offset="100%" stop-color="#d97706"/>
    </linearGradient>
  </defs>

  <path 
    d="M32 4.5 
       L57.5 12.8 
       C57.5 32 46.5 49 32 60 
       C17.5 49 6.5 32 6.5 12.8 
       Z" 
    fill="url(#m2ShieldBg)" 
    stroke="url(#m2GoldBorder)" 
    stroke-width="3.4" 
    stroke-linejoin="round"
    stroke-linecap="round"
  />

  <path 
    d="M32 9.5 
       L52.5 16.2 
       C52.5 31.5 43.5 44.8 32 54 
       C20.5 44.8 11.5 31.5 11.5 16.2 
       Z" 
    fill="none" 
    stroke="url(#m2CyanRim)" 
    stroke-width="1.3" 
    stroke-opacity="0.85"
  />

  <path 
    d="M16.5 41 
       L16.5 22 
       L21.2 22 
       L25.5 32 
       L29.8 22 
       L34.5 22 
       L34.5 41 
       L30.2 41 
       L30.2 28.5 
       L27 36 
       L24 36 
       L20.8 28.5 
       L20.8 41 
       Z" 
    fill="#ffffff"
  />

  <path 
    d="M37.5 25.8
       C37.5 23.2 39.5 21.2 42.8 21.2
       C46 21.2 48 23.2 48 25.6
       C48 27.6 46.8 29.5 44 32
       L39.8 36
       L48.2 36
       L48.2 40.2
       L37.2 40.2
       L37.2 37.2
       L42.5 32.2
       C44.2 30.6 44.8 29.4 44.8 28.2
       C44.8 26.8 43.8 25.8 42.5 25.8
       C41.2 25.8 40.4 26.6 40.3 27.8
       Z" 
    fill="url(#m2Num2Gold)"
  />

  <circle cx="32" cy="46.8" r="3.2" fill="#f59e0b" stroke="#78350f" stroke-width="0.6"/>
  <path 
    d="M32 44.2 L32 49.4 M29.4 46.8 L34.6 46.8" 
    stroke="#0b0f19" 
    stroke-width="1.3" 
    stroke-linecap="round"
  />
</svg>